<?xml version="1.0" encoding="UTF-8"?>
<svg width="108px" height="85px" viewBox="0 0 108 85" version="1.1" xmlns="http://www.w3.org/2000/svg" xmlns:xlink="http://www.w3.org/1999/xlink">
    <!-- Generator: Sketch 50.2 (55047) - http://www.bohemiancoding.com/sketch -->
    <title>SMS-Bubble</title>
    <desc>Created with Sketch.</desc>
    <defs>
        <path d="M25.3658415,65.9232547 L8.34383434,84.6139622 L11.9177369,65.6062606 C5.11204315,64.1848353 8.85147902e-16,58.1510358 0,50.9232547 L0,15.6732547 C-1.01453063e-15,7.38898347 6.71572875,0.67325472 15,0.67325472 L93,0.67325472 C101.284271,0.67325472 108,7.38898347 108,15.6732547 L108,50.9232547 C108,59.207526 101.284271,65.9232547 93,65.9232547 L25.3658415,65.9232547 Z M25.28,36.89 L20.72,36.89 C20.6999999,38.2100066 20.9399975,39.3499952 21.44,40.31 C21.9400025,41.2700048 22.6149958,42.0599969 23.465,42.68 C24.3150043,43.3000031 25.2949945,43.7549986 26.405,44.045 C27.5150056,44.3350015 28.6599941,44.48 29.84,44.48 C31.3000073,44.48 32.5849945,44.3100017 33.695,43.97 C34.8050056,43.6299983 35.7349963,43.1550031 36.485,42.545 C37.2350038,41.934997 37.7999981,41.2100042 38.18,40.37 C38.5600019,39.5299958 38.75,38.6200049 38.75,37.64 C38.75,36.439994 38.4950026,35.4550039 37.985,34.685 C37.4749975,33.9149962 36.8700035,33.3000023 36.17,32.84 C35.4699965,32.3799977 34.7650036,32.0450011 34.055,31.835 C33.3449965,31.624999 32.790002,31.4800004 32.39,31.4 C31.0499933,31.0599983 29.9650042,30.7800011 29.135,30.56 C28.3049959,30.3399989 27.6550024,30.1200011 27.185,29.9 C26.7149977,29.6799989 26.4000008,29.4400013 26.24,29.18 C26.0799992,28.9199987 26,28.5800021 26,28.16 C26,27.6999977 26.099999,27.3200015 26.3,27.02 C26.500001,26.7199985 26.7549985,26.470001 27.065,26.27 C27.3750016,26.069999 27.7199981,25.9300004 28.1,25.85 C28.4800019,25.7699996 28.8599981,25.73 29.24,25.73 C29.8200029,25.73 30.3549976,25.7799995 30.845,25.88 C31.3350025,25.9800005 31.7699981,26.1499988 32.15,26.39 C32.5300019,26.6300012 32.8349989,26.9599979 33.065,27.38 C33.2950012,27.8000021 33.4299998,28.3299968 33.47,28.97 L38.03,28.97 C38.03,27.7299938 37.7950024,26.6750044 37.325,25.805 C36.8549977,24.9349957 36.220004,24.2200028 35.42,23.66 C34.619996,23.0999972 33.7050052,22.6950013 32.675,22.445 C31.6449949,22.1949988 30.5700056,22.07 29.45,22.07 C28.4899952,22.07 27.5300048,22.1999987 26.57,22.46 C25.6099952,22.7200013 24.7500038,23.1199973 23.99,23.66 C23.2299962,24.2000027 22.6150024,24.874996 22.145,25.685 C21.6749977,26.4950041 21.44,27.4499945 21.44,28.55 C21.44,29.5300049 21.6249982,30.3649966 21.995,31.055 C22.3650019,31.7450035 22.849997,32.3199977 23.45,32.78 C24.050003,33.2400023 24.7299962,33.6149986 25.49,33.905 C26.2500038,34.1950015 27.029996,34.439999 27.83,34.64 C28.6100039,34.8600011 29.3799962,35.0599991 30.14,35.24 C30.9000038,35.4200009 31.579997,35.6299988 32.18,35.87 C32.780003,36.1100012 33.2649982,36.4099982 33.635,36.77 C34.0050019,37.1300018 34.19,37.5999971 34.19,38.18 C34.19,38.7200027 34.0500014,39.1649983 33.77,39.515 C33.4899986,39.8650018 33.1400021,40.139999 32.72,40.34 C32.2999979,40.540001 31.8500024,40.6749997 31.37,40.745 C30.8899976,40.8150004 30.4400021,40.85 30.02,40.85 C29.3999969,40.85 28.8000029,40.7750008 28.22,40.625 C27.6399971,40.4749993 27.1350022,40.2450016 26.705,39.935 C26.2749979,39.6249985 25.9300013,39.2200025 25.67,38.72 C25.4099987,38.2199975 25.28,37.6100036 25.28,36.89 Z M41.54,22.58 L41.54,44 L45.95,44 L45.95,28.97 L46.01,28.97 L51.26,44 L54.89,44 L60.14,28.82 L60.2,28.82 L60.2,44 L64.61,44 L64.61,22.58 L57.98,22.58 L53.24,37.31 L53.18,37.31 L48.17,22.58 L41.54,22.58 Z M71.96,36.89 L67.4,36.89 C67.3799999,38.2100066 67.6199975,39.3499952 68.12,40.31 C68.6200025,41.2700048 69.2949958,42.0599969 70.145,42.68 C70.9950043,43.3000031 71.9749945,43.7549986 73.085,44.045 C74.1950056,44.3350015 75.3399941,44.48 76.52,44.48 C77.9800073,44.48 79.2649945,44.3100017 80.375,43.97 C81.4850056,43.6299983 82.4149963,43.1550031 83.165,42.545 C83.9150038,41.934997 84.4799981,41.2100042 84.86,40.37 C85.2400019,39.5299958 85.43,38.6200049 85.43,37.64 C85.43,36.439994 85.1750026,35.4550039 84.665,34.685 C84.1549975,33.9149962 83.5500035,33.3000023 82.85,32.84 C82.1499965,32.3799977 81.4450036,32.0450011 80.735,31.835 C80.0249965,31.624999 79.470002,31.4800004 79.07,31.4 C77.7299933,31.0599983 76.6450042,30.7800011 75.815,30.56 C74.9849959,30.3399989 74.3350024,30.1200011 73.865,29.9 C73.3949977,29.6799989 73.0800008,29.4400013 72.92,29.18 C72.7599992,28.9199987 72.68,28.5800021 72.68,28.16 C72.68,27.6999977 72.779999,27.3200015 72.98,27.02 C73.180001,26.7199985 73.4349985,26.470001 73.745,26.27 C74.0550016,26.069999 74.3999981,25.9300004 74.78,25.85 C75.1600019,25.7699996 75.5399981,25.73 75.92,25.73 C76.5000029,25.73 77.0349976,25.7799995 77.525,25.88 C78.0150025,25.9800005 78.4499981,26.1499988 78.83,26.39 C79.2100019,26.6300012 79.5149989,26.9599979 79.745,27.38 C79.9750012,27.8000021 80.1099998,28.3299968 80.15,28.97 L84.71,28.97 C84.71,27.7299938 84.4750024,26.6750044 84.005,25.805 C83.5349977,24.9349957 82.900004,24.2200028 82.1,23.66 C81.299996,23.0999972 80.3850052,22.6950013 79.355,22.445 C78.3249949,22.1949988 77.2500056,22.07 76.13,22.07 C75.1699952,22.07 74.2100048,22.1999987 73.25,22.46 C72.2899952,22.7200013 71.4300038,23.1199973 70.67,23.66 C69.9099962,24.2000027 69.2950024,24.874996 68.825,25.685 C68.3549977,26.4950041 68.12,27.4499945 68.12,28.55 C68.12,29.5300049 68.3049982,30.3649966 68.675,31.055 C69.0450019,31.7450035 69.529997,32.3199977 70.13,32.78 C70.730003,33.2400023 71.4099962,33.6149986 72.17,33.905 C72.9300038,34.1950015 73.709996,34.439999 74.51,34.64 C75.2900039,34.8600011 76.0599962,35.0599991 76.82,35.24 C77.5800038,35.4200009 78.259997,35.6299988 78.86,35.87 C79.460003,36.1100012 79.9449982,36.4099982 80.315,36.77 C80.6850019,37.1300018 80.87,37.5999971 80.87,38.18 C80.87,38.7200027 80.7300014,39.1649983 80.45,39.515 C80.1699986,39.8650018 79.8200021,40.139999 79.4,40.34 C78.9799979,40.540001 78.5300024,40.6749997 78.05,40.745 C77.5699976,40.8150004 77.1200021,40.85 76.7,40.85 C76.0799969,40.85 75.4800029,40.7750008 74.9,40.625 C74.3199971,40.4749993 73.8150022,40.2450016 73.385,39.935 C72.9549979,39.6249985 72.6100013,39.2200025 72.35,38.72 C72.0899987,38.2199975 71.96,37.6100036 71.96,36.89 Z" id="path-1"></path>
    </defs>
    <g id="Main-Site" stroke="none" stroke-width="1" fill="none" fill-rule="evenodd">
        <g id="Overview" transform="translate(-485.000000, -1186.000000)">
            <g id="SMS-Bubble" transform="translate(485.000000, 1186.000000)">
                <g id="SMS">
                    <mask id="mask-2" fill="white">
                        <use xlink:href="#path-1"></use>
                    </mask>
                    <use id="Combined-Shape" fill="#000000" xlink:href="#path-1"></use>
                </g>
            </g>
        </g>
    </g>
</svg>